<svg xmlns="http://www.w3.org/2000/svg" version="1.1" xmlns:xlink="http://www.w3.org/1999/xlink" width="512" height="512" x="0" y="0" viewBox="0 0 70 70" style="enable-background:new 0 0 512 512" xml:space="preserve" class=""><g><path fill="#ec2c1f" d="M14.852 54.19c-2.699-.807-2.752-.79-4.68-3.516-1.413-1.996-3.332-.724-2.938.621.148.506.639.892 1.166.916-.438-.046-.883-.093-1.315-.012-.433.08-.859.309-1.074.692-.377.67.044 1.563.697 1.967s1.46.45 2.229.485c-.63.014-1.278.032-1.858.277-.58.246-1.086.775-1.11 1.405-.029.769-.04 2.519 1.431 1.568 3.661-2.366 3.415-2.005 6.504-1.741z" opacity="1" data-original="#ec2c1f"></path><path fill="#ce2220" d="M50.241 37.508c-.66.44-1.34.82-2.04 1.16-8.94 4.359-19.757.678-24.18-8.01-4.029-7.702-2.027-17.22 4.756-22.66.658-.526 1.634-.185 1.852.63 2.01 7.514 5.593 14.317 10.772 20.4 2.17 2.55 4.62 4.97 7.35 7.26.11.1.22.19.34.29.37.31.76.62 1.15.93z" opacity="1" data-original="#ce2220" class=""></path><path fill="#040509" d="M49.191 36.298c-.03.09-.06.19-.1.28-.26.72-.55 1.42-.89 2.09-8.94 4.359-19.757.678-24.18-8.01 7.33 3.64 15.56 5.52 24.73 5.63.14.01.29.01.44.01z" opacity="1" data-original="#040509"></path><path fill="#ec2c1f" d="M55.031 35.368c-.75.78-1.05 1.88-.81 2.93.15.65.28 1.33.36 2.03.08.63.13 1.29.13 1.94.06 2.08-.21 4.19-.88 6.09-.22.63-.48 1.23-.78 1.82-2.01 4.03-5.72 7.14-9.8 9.13-9.957 4.838-22.293 3.91-31.6-4.23-.57-.5-.16-1.41.59-1.33 5.405.54 10.34-2.592 12.31-7.28 1.978-4.72 5.112-8.72 8.94-11.96 2.71-2.3 6.32-3.59 9.8-3.59 1.73-1.88 1.99-6.93-.13-10.45.101.05 9.968 2.125 12.66 7.51 1.7 3.36.65 5.85-.79 7.39z" opacity="1" data-original="#ec2c1f"></path><path fill="#ffffff" d="M55.031 35.368c-.75.78-1.05 1.88-.81 2.93.15.65.28 1.33.36 2.03.08.63.13 1.29.13 1.94-3.49-1.15-6.01-4.44-6.01-8.3 0-3.71 2.29-6.85 5.53-8.13.646.648 1.173 1.305 1.59 2.14 1.7 3.36.65 5.85-.79 7.39z" opacity="1" data-original="#ffffff"></path><path fill="#040509" d="M29.164 38.883c-4.767 5.767-3.953 8.086-7.113 11.305 8.324 3.789 17.938.943 22.881-6.548-5.588.164-11.206-1.456-15.768-4.757z" opacity="1" data-original="#040509"></path><path fill="#ffbe2e" d="m63.866 37.046-9.655-1.268 2.142-5.262 7.689 6.114c.186.148.06.447-.176.416z" opacity="1" data-original="#ffbe2e"></path><path fill="#f17e1f" d="m54.909 34.064-.698 1.714 9.655 1.268a.235.235 0 0 0 .259-.286c-1.75-.266-9.216-2.696-9.216-2.696z" opacity="1" data-original="#f17e1f"></path><path fill="#040509" d="M54.985 35.41c-.74.77-1 1.85-.76 2.89.15.65.28 1.33.36 2.03a7.42 7.42 0 0 1-5.82-7.24c0-3.46 2.35-6.35 5.54-7.18a8.01 8.01 0 0 1 1.52 2.07c1.71 3.39.63 5.9-.84 7.43z" opacity="1" data-original="#040509"></path><path fill="#ffffff" d="M55.667 31.145a2.713 2.713 0 0 1-5.423 0 2.706 2.706 0 0 1 2.712-2.704 2.706 2.706 0 0 1 2.711 2.704z" opacity="1" data-original="#ffffff"></path><path d="M54.949 31.37a.856.856 0 0 1-1.711 0c0-.472.383-.853.855-.853.473 0 .856.38.856.853z" fill="#000000" opacity="1" data-original="#000000"></path><path fill="#ffbe2e" d="M53.665 25.362a12.574 12.574 0 0 0-11.56-6.17c-.95.056-1.903.222-2.783.587 2.677 2.917 2.749 3.102 3.198 3.166.788.11 4.926-.559 10.364 2.025.152.072.707.244.78.392z" opacity="1" data-original="#ffbe2e"></path><path fill="#f17e1f" d="M53.661 25.358c-.054-.109-.203-.146-1.53-.73-3.217-4.006-8.446-5.45-12.41-4.41-.13-.15-.27-.29-.4-.44.88-.36 1.83-.53 2.78-.59a12.568 12.568 0 0 1 11.56 6.17z" opacity="1" data-original="#f17e1f"></path><path fill="#ec2c1f" d="M48.766 37.724c-3.23 9.562-13.587 14.701-23.15 11.472-9-3.04-14.079-12.408-11.95-21.473.192-.815 1.167-1.14 1.837-.637 9.294 6.982 20.362 10.565 33.263 10.638z" opacity="1" data-original="#ec2c1f"></path><path fill="#ce2220" d="M18.449 33.746c6.659 4.129 14.174 6.626 22.45 7.461-7.477 8.405-21.48 3.778-22.45-7.46z" opacity="1" data-original="#ce2220" class=""></path><path d="M59.232 34.077c-.116.142-.428.09-.674-.113-.247-.203-.358-.498-.241-.64s.42-.08.666.123c.246.203.366.488.25.63z" fill="#000000" opacity="1" data-original="#000000"></path><path fill="#ce2220" d="M53.051 50.178c-2.01 4.03-5.72 7.14-9.8 9.13a29.382 29.382 0 0 1-16.13 2.73c-.01 0-.02-.01-.03-.02 9.75-.21 19.43-4.6 25.96-11.84z" opacity="1" data-original="#ce2220" class=""></path></g></svg>